<?xml version="1.0" encoding="utf-8"?>
<!-- Generator: Adobe Illustrator 19.2.1, SVG Export Plug-In . SVG Version: 6.00 Build 0)  -->
<svg version="1.1" id="Layer_1" xmlns="http://www.w3.org/2000/svg" xmlns:xlink="http://www.w3.org/1999/xlink" x="0px" y="0px"
	 viewBox="0 0 42.8 42.8" style="enable-background:new 0 0 42.8 42.8;" xml:space="preserve">
<style type="text/css">
	.st0{fill:#FFFFFF;}
</style>
<path class="st0" d="M21.4,0C9.6,0,0,9.6,0,21.4s9.6,21.4,21.4,21.4s21.4-9.6,21.4-21.4S33.2,0,21.4,0z M25.7,30.8
	c0.7,0.7,0.7,1.9,0,2.6c-0.4,0.4-0.8,0.5-1.3,0.5s-0.9-0.2-1.3-0.5L12.4,22.7c-0.7-0.7-0.7-1.9,0-2.6L23.1,9.4
	c0.7-0.7,1.9-0.7,2.6,0c0.7,0.7,0.7,1.9,0,2.6l-9.4,9.4L25.7,30.8z"/>
</svg>
