<?xml version="1.0" encoding="utf-8"?>
<!-- Generator: Adobe Illustrator 19.2.1, SVG Export Plug-In . SVG Version: 6.00 Build 0)  -->
<svg version="1.1" id="Layer_1" xmlns="http://www.w3.org/2000/svg" xmlns:xlink="http://www.w3.org/1999/xlink" x="0px" y="0px"
	 viewBox="0 0 247 87.7" style="enable-background:new 0 0 247 87.7;" xml:space="preserve">
<style type="text/css">
	.st0{fill-rule:evenodd;clip-rule:evenodd;fill:#79A9BF;}
</style>
<g>
	<path class="st0" d="M80.1,28.5c0.3-0.4,0.9-3.3,1.1-4c0.2-0.6,0.4-1.1,0.4-1.5c0.1-0.4,0.3-0.4,0.4-0.7c0.1-0.3,0.5-0.3,0.8-0.3
		c0.2,0,0.9,0.2,1,0.3c0.1,0.1,0.4,0.7,0.2,1.2c-0.1,0.5-0.7,3.1-0.8,3.8c-0.1,0.7-0.3,1.5-0.3,1.8c0,0.3-0.5,0.3-1.2,0.3
		c-0.6,0-1,0.1-1.3-0.1C80.2,29.2,79.9,28.8,80.1,28.5"/>
	<path class="st0" d="M81.9,34c0.4-0.1,1.1,0.5,1.5,0.5c0.4,0,0.9-0.2,1.1,0c0.3,0.2,0.3,0.6,0.3,1c0,0.4-1.1,2.6-1.3,3.2
		c-0.2,0.6-0.6,2-0.6,2.2c0,0.3-0.4,0.1-0.6,0.1c-0.2,0-0.8-0.7-1-0.8c-0.2-0.1-1-0.2-1-0.6c0-0.4,0.7-2.6,0.9-3.6
		C81.4,35,81.6,34.1,81.9,34"/>
	<path class="st0" d="M89.9,34.7c0.4-0.1,1,1,1.4,1.1c0.5,0.1,1.5,0.9,1.5,1.3c0,0.4-1,2.2-1,2.8c0,0.6-0.3,2.3-0.4,2.5
		c-0.2,0.2-0.3,0-0.6-0.2c-0.3-0.2-0.5-0.6-0.4-0.9c0-0.2-0.1-0.6-0.1-0.6s0,0.8-0.3,0.9c-0.3,0.1-0.4-0.2-0.5-0.4
		c-0.1-0.2,0.2-3.8,0.1-4.2c0-0.4,0.1-1.5,0.1-1.8C89.7,34.9,89.6,34.7,89.9,34.7"/>
	<path class="st0" d="M89.5,26.3c0-0.6,0.4-2.9,0.3-3.2c0-0.3,0.7-0.3,0.8-0.4c0.2-0.1,0.7,0.4,0.8,0.3c0.1-0.1,0.4-0.3,0.5,0.1
		c0.1,0.4,0.8,4.1,0.8,4.3c0,0.2-0.9,0.2-0.9,0.4c0,0.2,0,0.9-0.1,0.9c-0.1,0-0.6-0.3-0.7-0.4c-0.1-0.1-0.2-0.3-0.3-0.3
		c-0.1,0-0.4,0.4-0.6,0.4c-0.2,0-0.6,0.1-0.6-0.3C89.6,27.6,89.5,26.9,89.5,26.3"/>
	<path class="st0" d="M104.5,35.2c0.1-0.3,0.5-0.4,0.8-0.4c0.2,0,1.1,0.4,1.2,0.4c0.1,0.1,0.8,1.6,0.9,2.3c0.2,0.7,0.2,2.3,0.1,2.7
		c-0.1,0.4-1,0.8-1.2,0.8c-0.2,0-1.2-1-1.3-1.3c-0.1-0.3-0.1-1.7-0.2-2.1C104.7,37.3,104.5,35.4,104.5,35.2"/>
	<path class="st0" d="M106.5,45c0,0,0.9,0.2,1.1,0.2c0.2,0,1,0.4,1.2,0.6c0.2,0.1,0,0.9,0,1.4c0,0.5-0.7,3.4-0.6,3.7
		c0,0.3-0.5,0.2-0.7,0c-0.2-0.2-0.9-0.3-1-0.7c-0.1-0.4-0.3-2.1-0.3-2.5c0-0.3-0.3-2.6-0.3-2.9C106,44.6,106.5,45,106.5,45"/>
	<path class="st0" d="M122.7,43.3c0,0,0.6,0.3,0.7,0.2c0.1,0,0.7-0.6,0.9-0.6c0.2,0,0.8,0.4,1,0.4c0.2,0,1-0.1,0.9,0.2
		c-0.1,0.3-0.4,4.3-0.4,4.7c0,0.4,0.2,1-0.1,0.9c-0.3-0.1-0.7-0.3-0.7-0.3s0.1,0.7-0.1,0.7c-0.2,0-0.8-1.1-1-1.3
		c-0.1-0.2-0.6-0.5-0.6-0.3c0,0.2-0.1,0.4-0.3,0.3c-0.2-0.1-0.2-2-0.2-2.4C122.8,45.4,122.5,43.7,122.7,43.3"/>
	<path class="st0" d="M130.9,43.2c0,0,0.5,0.3,0.7,0.2c0.1,0,0.7-0.6,0.9-0.6c0.2,0,0.8,0.4,1,0.4c0.2,0,1-0.1,0.9,0.2
		c-0.1,0.3-0.4,4.3-0.4,4.7c0,0.4,0.2,1-0.1,0.9c-0.3-0.1-0.7-0.3-0.7-0.3s0.1,0.7-0.1,0.7c-0.2,0-0.8-1.1-1-1.3
		c-0.1-0.2-0.6-0.5-0.6-0.3c0,0.2-0.1,0.4-0.3,0.3c-0.3-0.1-0.2-2-0.2-2.4C131,45.3,130.7,43.6,130.9,43.2"/>
	<path class="st0" d="M114.4,34.5c0,0,12.7,1.4,13.8,1.4c1.1,0.1,11.4,0.7,11.6,0.7c0.2,0-0.1,1.9-0.1,1.9l-0.6,1.3
		c0,0-1.4-0.5-1.8-0.6c-0.4,0-7.8-0.2-9.6,0c-1.8,0.2-5.2,1.6-5.9,1.9c-0.7,0.3-5.4,2.2-5.4,2.2L114.4,34.5z"/>
	<path class="st0" d="M135.1,28.1c0,0,10.7,0.8,11.4,0.8c0.6,0,6.1,0.5,7.1,0.5c1,0,5.8,0.6,6,0.6c0.2,0,2.1-0.5,2,0.3
		c0,0.7-0.5,0.4-0.5,1c0,0.7,3.8,1.3,3.4,2.4c-0.3,0.8-12.2-1.6-15.8-2c-3.6-0.4-9.9-0.9-11.1-0.9c-1.3,0-3.9,0.5-4,0.4
		c0-0.2,0.1-0.7,0.1-0.8c0-0.1-1.3-0.1-1.3-0.2c0-0.1-0.8-0.4-0.5-0.6c0.2-0.2,2.8-1,2.8-1L135.1,28.1z"/>
	<path class="st0" d="M146.7,18.2c0,0,0-0.4,0.3-0.5c0.3-0.1,0.9,0,1.3,0c0.3,0,1-0.1,1.1,0c0.1,0.2,0.1,0.7,0.1,1.3
		c0,0.6-0.5,3.7-0.5,4c0,0.4,0,0.7-0.1,0.7c-0.1,0-0.5-0.3-0.5-0.3s-0.2,1.1-0.4,1.1c-0.2,0-1.3-0.2-1.4-0.4c-0.1-0.2-0.1-3.8,0-4.4
		C146.6,19.2,146.7,18.2,146.7,18.2"/>
	<path class="st0" d="M136,11.7c0,0,8.3,0,9.5,0c1.2,0,7.9,0,8.5,0c0.6,0,4.8,0.7,5.6,0.8c0.8,0.1,1.9,0.2,2.1,0.4
		c0.2,0.1,0.2,0.5,0.1,0.6c-0.1,0.1-0.5,0.3-0.5,0.3s0,0.3-0.2,0.4c-0.2,0.1-1.9,0-3.1,0.1c-1.2,0-9.7-0.2-11-0.1
		c-1.3,0.1-8,0.2-8.7,0.2c-0.7,0-2.1,0.2-2.1,0c0-0.2,0.1-0.5-0.2-0.4c-0.4,0-2-0.1-2-0.2c0.1-0.2-0.1-0.4,0.3-0.5
		c0.4-0.1,1.6-0.5,1.6-0.7C135.9,12.2,136,11.7,136,11.7"/>
	<path class="st0" d="M54.7,64.8c16.1-1.1,32.3-1.9,48.4-2.4c14.6-0.4,29.2-0.4,43.7-0.4c3.3,0,24.4,1.3,28.7,1.5
		c4.3,0.2,9.9,0.7,10.9,0.8c1,0.2,0.9,0.6,0.4,0.6c-0.6,0.1-2.5,0.2-2.5,0.2s-0.1,0.3-1.3,0.3c-1.1,0-9.8-0.3-16-0.5
		c-18.7-0.5-37.5-0.9-56.2-0.3c-14.8,0.4-29.6,1.1-44.4,2c-3.6,0.2-10.9,0.9-10.8,0.7c0.1-0.2,0.6-0.5-1.2-0.4
		c-1.8,0.2-10.3,0.7-10,0.5s-0.8-0.4,1.5-0.6c2.2-0.2,8.3-1.2,8.2-1.4C54.1,65.3,54.7,64.8,54.7,64.8"/>
	<path class="st0" d="M40.5,74.1c20.7-1.3,41.4-2.2,62.2-2.8c18.7-0.6,37.5-0.6,56.1-0.7c4.3,0,31.3,1.1,36.9,1.3
		c5.6,0.2,12.7,0.6,13.9,0.8c1.2,0.2,1.2,0.5,0.5,0.6c-0.7,0.1-3.2,0.2-3.2,0.2s-0.2,0.3-1.6,0.3c-1.4,0.1-12.5-0.3-20.5-0.4
		c-24-0.3-48.2-0.6-72.2,0.1c-19,0.5-38,1.3-57,2.4c-4.6,0.3-14,1-13.9,0.8c0.2-0.2,0.8-0.5-1.5-0.4c-2.3,0.2-13.2,0.8-12.8,0.6
		c0.3-0.2-1-0.4,1.9-0.7C32,76,39.8,75,39.8,74.8C39.7,74.6,40.5,74.1,40.5,74.1"/>
	<path class="st0" d="M17.9,84.8c27.9-1.5,55.9-2.6,83.8-3.4c25.2-0.7,50.5-1,75.6-1.3c5.8-0.1,42.2,0.8,49.6,0.9
		c7.5,0.1,17.1,0.5,18.8,0.6c1.7,0.2,1.6,0.5,0.6,0.6c-1,0.1-4.4,0.2-4.4,0.2s-0.3,0.3-2.2,0.4c-1.9,0.1-16.9-0.1-27.7-0.2
		c-32.3-0.1-64.9-0.1-97.2,0.8c-25.6,0.7-51.3,1.7-76.8,2.9c-6.2,0.3-18.9,1.1-18.7,1c0.2-0.2,1.1-0.6-2-0.4
		C14.2,87.2-0.4,87.9,0,87.7c0.4-0.2-1.3-0.4,2.5-0.7c3.8-0.3,14.3-1.3,14.3-1.5C16.8,85.3,17.9,84.8,17.9,84.8"/>
	<path class="st0" d="M151.1,1.5c0,0,10.4,2.6,10.9,2.7c0.5,0.1,0.2,0.6,0.4,1c0.2,0.4,0.3,1.2,0.2,1.3c-0.1,0.1-3.2-0.1-4-0.1
		c-0.9,0.1-8.2,0.3-8.2,0.3s-2.4,1.5-3.1,2c-0.7,0.5-4.2,3.1-4.3,3.7c-0.1,0.6-0.1,6.1-0.3,9.7c-0.2,3.6-0.3,15.4-0.4,18.1
		c-0.1,2.7,0.1,14.3,0.1,15.2c0.1,0.9-0.2,1.7-0.4,2c-0.2,0.2-0.9,0.3-1.1,0.4c-0.2,0.1-1.1,1.2-1.3,1.2c-0.3,0-0.9-0.9-1.2-0.9
		c-0.3,0-0.4-0.7-0.6-1c-0.1-0.3,0.2-1.2-0.1-1.5c-0.2-0.3-0.6-1.3-0.6-1.6c0-0.3,0-1.4,0-1.7c0-0.3,1.3-24.3,1.5-27
		c0.3-2.7,2-18.7,2-18.7s-4.5,0.2-5.5,0.3c-0.9,0-5.5,0.6-5.4,0.2c0.1-0.4,6.1-2.7,7.2-3c1-0.3,8.9-2.8,9.6-3
		c0.7-0.1,1.9-0.9,2.1-1.1c0.3-0.2,0.6,0,0.9-0.1c0.3,0,1.2,0.3,1.2,0.3s-1,0.8-1.4,1.1c-0.4,0.3-3.2,3-3.4,3.2
		c-0.2,0.2,4.2,0,5.1,0c0.9-0.1,5.8-0.1,5.8-0.1s-3-1.3-3.4-1.3c-0.4,0-2.7-0.7-3-0.8c-0.3-0.1,0.1-0.8,0.4-0.9
		c0.3-0.2,0.6,0.1,0.6,0.1"/>
	<path class="st0" d="M145.3,47.6c0,0,1-3.8,1-5.1c0-1.3,0.8-2.1,1.6-2.2c0.8-0.1,1.8,1.4,1.8,1.4s0.8,1.2,0.6,2.4
		c-0.1,1.2-0.6,4.4-0.6,4.4s-1.9,0.8-2.8,0.6C145.8,49,145,48.1,145.3,47.6"/>
	<path class="st0" d="M161.1,59.8c0,0-1.9-15.8-2.4-19.6c-0.5-3.8-2-19.9-2.1-21.3c-0.1-1.4-1.1-13.5-1.1-13.5s-1.8-0.4-2,0
		c-0.2,0.4,0.4,4.2,0.6,5.6c0.2,1.5,1,22.3,1.1,26c0.1,3.7,2,16.5,2.2,18.4c0.1,1.9,0.7,3,0.8,3.5c0.1,0.5,1.1-0.4,1.1-0.4
		s0.5,1.7,0.7,1.9C160.1,60.4,161.1,59.8,161.1,59.8"/>
	<path class="st0" d="M121,31.2c-0.1-0.2-0.9-0.5-1.4-1c-0.5-0.5-5.1-7.3-5.1-7.3l0.6-0.4c0,0,0.7,0,1,0c0.2,0,0.2-0.4,0.2-0.4
		s1,0.1,1.1,0c0.1-0.2-0.4-0.5-0.4-0.5s0.2,0,0.4-0.2c0.1-0.1,0.1-0.2,0-0.5c-0.1-0.3-0.8-0.3-1.2-0.3c-0.3,0-2.5,0.4-2.9,0.2
		c-0.4-0.2-1.9-1.6-2.1-1.8c-0.1-0.3-0.7-0.8-0.9-0.7c-0.1,0.1-0.2,0.5-0.2,0.5l-0.3,0.3l0.2,0.4l-0.3,0.3l0.5,0.8
		c0,0-3.1,0.6-6.3,0.7c-3,0.1-6.1-0.3-6.1-0.3l-1.2-2.3l4,2c0,0,0.8-0.1,1.2-0.5c0.4-0.4,0.5-1.2,0.8-1.6c0.2-0.3,2-0.1,2-0.1
		s-8-3-10.2-3.9c-2.1-0.8-7.6-4.4-7.6-4.4s-3.6,1.2-5.3,1.9c-1.7,0.7-13.8,4.6-14.2,4.7c-0.4,0.1-0.1,1,0,1.6c0,0.6,0.5,0.7,0.8,0.8
		c0.3,0.1,0.1,0.7,0.7,0.6c0.6-0.1,1.1,0.1,1.5-0.2c0.4-0.3,5.1-1.8,5.1-1.8s-5,27-5.2,31.3c-0.2,4.3-2.5,12.7-1.7,12.6
		c0.8,0,0.5,0,0.6-0.2c0.1-0.1,0.5-0.2,0.7-0.3c0.2-0.1,0.5-0.1,0.9,0c0.3,0.2,0.7,0.2,0.7-0.1c0-0.3,0.5-1.2,0.6-1.3
		c0.1-0.1,0-1.3,0-1.6c0-0.3,0.3-0.8,0.5-0.9c0.2-0.1-0.2-1.5-0.1-2.1c0.1-0.6,5.2-28.2,5.5-28.8c0.2-0.5,2.9-4.8,3.8-5.8
		c0.9-1,5-5.5,5.3-5.5c0.4,0,4,1.1,5,1.5c1,0.4,3.5,1.9,3.7,2.4c0.2,0.4,0.4,7.9,0.7,10.4c0.2,2.5,1.8,17.1,1.9,18.2
		c0.1,1.2,0.7,5.2,0.8,5.6c0.2,0.4,0.8,1.8,0.9,2.2c0.1,0.3,0.8,1,1.2,1.1c0.4,0.1,0.7-0.2,0.9-0.1c0.3,0.1,0.6,1.4,0.8,1.4
		c0.2,0,0.6,0.1,0.6-0.2c0-0.2-0.5-2.6-0.6-3.3c-0.1-0.8-0.5-3.7-0.6-4.9c-0.1-1.2-1.5-9.4-1.5-10.1c0-0.8,0.6-2.6,1.2-3.4
		c0.5-0.8,1.8-3,2.2-3.4c0.3-0.3,1.6-1.1,2.6-1.1c1,0,4.7,0.1,4.9,0.2c0.2,0.1,1,6.6,1.2,8.8c0.2,2.2,1.6,10.8,1.8,11.3
		c0.2,0.6,0.2,0.5,0.3,0.5c0.2,0,0.5,1.6,0.5,2.1c0.1,0.5,0.4,0.6,0.8,0.6c0.4,0,0.3,0.5,0.3,0.6s0.8,0.1,1,0.1
		c0.2,0,1.3,0.3,1.7,0.4c0.4,0.1,0.6,0,0.6-0.3c0-0.3-0.6-3.1-0.8-3.9c-0.2-0.8-4.8-20.3-4.8-20.3s1.9,0.2,2.2,0.3
		c0.3,0,0.5-0.3,0.5-0.3l1.1,0.2c0,0,0.7,0.6,1,0.6c0.3,0,0.2-0.4,0.2-0.4l0.6,0.2c0,0,0.6-0.1,0.8-0.2
		C121.1,31.7,121.1,31.3,121,31.2 M114.4,29.3c-0.9,0-9.7-0.8-10.9-0.8c-1.2,0-2.9-0.2-2.4-0.6c0,0,7.1-4,7.9-4.3
		c0.8-0.3,2.2-0.6,2.5-0.3c0.3,0.2,2.3,4.3,2.7,4.7C114.5,28.4,115.3,29.3,114.4,29.3"/>
	<path class="st0" d="M157.3,39.1c0,0,6.8,1.1,8.6,1.5c1.8,0.4,7.6,1.7,8.2,1.9c0.7,0.1,2.5,0.5,2.6,1c0,0.5-0.6,0.8-1.4,0.8
		c-0.7,0-6.9-1.1-8.8-1.4c-1.9-0.3-8.8-0.7-8.8-0.7L157.3,39.1z"/>
	<path class="st0" d="M175.9,45.7c0,0,0,3.6,0,4.6c0,1-0.3,4.1-0.3,4.4c0,0.4,0,1.4-0.4,1.4c-0.3,0.1-0.6-0.2-0.7-0.6
		c-0.1-0.4,0-3.6-0.1-4.6c0-1-0.5-4.6-0.5-4.6L175.9,45.7z"/>
</g>
</svg>
