<?xml version="1.0" encoding="utf-8"?>
<!-- Generator: Adobe Illustrator 19.2.1, SVG Export Plug-In . SVG Version: 6.00 Build 0)  -->
<svg version="1.1" id="Layer_2" xmlns="http://www.w3.org/2000/svg" xmlns:xlink="http://www.w3.org/1999/xlink" x="0px" y="0px"
	 viewBox="0 0 59.8 58.9" style="enable-background:new 0 0 59.8 58.9;" xml:space="preserve">
<style type="text/css">
	.st0{fill:#FFFFFF;}
</style>
<g>
	<circle class="st0" cx="29.3" cy="29.2" r="15.2"/>
	<g>
		<path class="st0" d="M6.7,30.1l-2.9,2.5l3.1-0.3l0.1,1.3l-6.6,0.7l-0.1-1.3l3.1-0.3l-3.3-1.7L0,29.4l3.4,1.9l3.1-2.7L6.7,30.1z"/>
		<path class="st0" d="M8.4,20.5l-1.7,0L6,22.5l1.4,1L7,24.8l-5.5-4.4l0.4-1.1l7-0.2L8.4,20.5z M3.1,20.4l2,1.5l0.5-1.4L3.1,20.4z"
			/>
		<path class="st0" d="M13.8,12.7l-3-0.7l-0.4,0.5l1.9,1.8l-0.9,0.9l-4.8-4.5l1.5-1.6c0.7-0.7,1-0.9,1.6-1c0.5,0,1,0.2,1.4,0.6
			c0.4,0.3,0.6,0.7,0.7,1.1c0.1,0.4,0,0.7-0.3,1.2l3.2,0.7L13.8,12.7z M8.9,9.9l-0.6,0.6l1.3,1.2l0.6-0.6c0.5-0.6,0.6-1,0.1-1.5
			C9.8,9.2,9.4,9.3,8.9,9.9z"/>
		<path class="st0" d="M21.3,5c-0.3,0.6-0.7,0.9-1.6,1.3c-0.2,0.1-0.4,0.1-0.6,0.2L20,8.6l-1.2,0.5L16.3,3l2.1-0.9
			c0.8-0.3,1.3-0.4,1.8-0.2c0.5,0.2,0.9,0.6,1.1,1.1C21.6,3.7,21.6,4.4,21.3,5z M18.7,3.1l-0.8,0.3l0.8,2l0.2-0.1l0.1-0.1
			c0.1,0,0.2-0.1,0.3-0.1c0.9-0.4,1.2-0.9,0.8-1.6C19.9,3,19.4,2.8,18.7,3.1z"/>
		<path class="st0" d="M31.6,6.7L31.1,5L28.9,5l-0.6,1.6l-1.3,0L29.6,0l1.1,0l2.2,6.7L31.6,6.7z M30.1,1.5l-0.8,2.4l1.5,0L30.1,1.5z
			"/>
		<path class="st0" d="M41.4,3.8l-2.3,5l-1.1-0.5l2.3-5l-1.8-0.8l0.4-1l4.8,2.1l-0.4,1L41.4,3.8z"/>
		<path class="st0" d="M50.9,11.9c-0.2-0.7-0.5-1.3-0.8-1.6C49.7,9.9,49.3,9.8,49,10c-0.2,0.2-0.2,0.4-0.1,0.9
			c0.3,1.1,0.4,1.9,0.4,2.3c0,0.4-0.2,0.8-0.6,1.1c-0.9,0.8-2,0.6-2.9-0.4c-0.1-0.1-0.3-0.3-0.4-0.5c-0.3-0.4-0.4-0.6-0.6-1.3
			c0-0.1-0.1-0.3-0.1-0.5l1.2-0.4c0.1,0.5,0.2,0.7,0.3,1c0.1,0.3,0.3,0.6,0.5,0.8c0.4,0.4,0.8,0.5,1.1,0.3c0.2-0.2,0.2-0.4,0.1-0.9
			l-0.3-1.1C47.4,10.1,47.5,9.5,48,9c0.2-0.2,0.6-0.4,0.9-0.4c0.2,0,0.4,0,0.7,0C50.1,8.7,50.5,9,51,9.5c0.3,0.3,0.5,0.6,0.7,1
			c0.1,0.3,0.2,0.5,0.4,0.9L50.9,11.9z"/>
		<path class="st0" d="M51.1,23.3l2.3-3.1l-3,1L50,20l6.2-2.1l0.4,1.2l-2.9,1l3.6,1l0.5,1.4L54,21.3l-2.4,3.4L51.1,23.3z"/>
		<path class="st0" d="M51.6,33.1l1.7-0.4l0.2-2.2l-1.6-0.7l0.1-1.3l6.3,3l-0.1,1.1l-6.8,1.7L51.6,33.1z M56.8,31.9l-2.3-1l-0.2,1.5
			L56.8,31.9z M58.6,32.4l0.1-0.9l1.1,1.1l-0.1,1.1L58.6,32.4z"/>
	</g>
	<g>
		<path class="st0" d="M10.8,48.8c-0.6-0.1-1.1-0.4-1.7-1.1c-0.2-0.2-0.3-0.3-0.4-0.5L7,48.8l-0.9-0.9l4.9-4.5l1.5,1.7
			c0.6,0.6,0.8,1.1,0.8,1.7c0,0.5-0.3,1-0.7,1.4C12.1,48.6,11.4,48.9,10.8,48.8z M11.7,45.7l-0.6-0.6l-1.6,1.5l0.1,0.1l0.1,0.1
			C9.8,46.9,9.8,47,9.8,47c0.7,0.7,1.2,0.8,1.8,0.2C12.2,46.8,12.2,46.3,11.7,45.7z"/>
		<path class="st0" d="M15.8,55.7l2.6-6l3.7,1.6l-0.4,1l-2.5-1.1l-0.7,1.5l2.1,0.9l-0.4,1l-2.1-0.9l-0.7,1.6l2.6,1.2l-0.4,1
			L15.8,55.7z"/>
		<path class="st0" d="M30.9,58.8l-1.6-2.6l-0.6,0l0,2.6l-1.3,0l-0.1-6.6l2.2,0c1,0,1.4,0.1,1.8,0.5c0.4,0.3,0.6,0.8,0.6,1.4
			c0,0.5-0.1,0.9-0.3,1.2c-0.2,0.3-0.5,0.5-1,0.6l1.7,2.8L30.9,58.8z M29.5,53.3l-0.8,0l0,1.8l0.8,0c0.8,0,1.1-0.3,1.1-1
			C30.7,53.6,30.3,53.3,29.5,53.3z"/>
		<path class="st0" d="M40,56.9l-2.7-6l1.1-0.5l2.3,5l2.5-1.1l0.4,1L40,56.9z"/>
		<path class="st0" d="M52.4,47.9l-1.6-0.7l-1.5,1.6l0.8,1.5l-0.9,1l-3.3-6.2l0.8-0.8l6.5,2.6L52.4,47.9z M47.6,45.7l1.3,2.2l1-1.1
			L47.6,45.7z"/>
	</g>
</g>
</svg>
